<svg width="160" height="140" viewBox="0 0 160 140" fill="none" xmlns="http://www.w3.org/2000/svg">
<foreignObject x="0" y="0" width="160" height="140"><div xmlns="http://www.w3.org/1999/xhtml" style="backdrop-filter:blur(4.6px);clip-path:url(#bgblur_1_16842_23105_clip_path);height:100%;width:100%"></div></foreignObject><g filter="url(#filter0_dd_16842_23105)" data-figma-bg-blur-radius="9.2">
<g clip-path="url(#clip0_16842_23105)">
<path d="M14 22C14 17.5817 17.5817 14 22 14H134C138.418 14 142 17.5817 142 22V114C142 118.418 138.418 122 134 122H22C17.5817 122 14 118.418 14 114V22Z" fill="url(#paint0_linear_16842_23105)" shape-rendering="crispEdges"/>
<path d="M30 34C30 31.7909 31.7909 30 34 30H122C124.209 30 126 31.7909 126 34C126 36.2091 124.209 38 122 38H34C31.7909 38 30 36.2091 30 34Z" fill="#DDDBFF" fill-opacity="0.8"/>
<path opacity="0.6" d="M30 46C30 43.7909 31.7909 42 34 42H79C81.2091 42 83 43.7909 83 46C83 48.2091 81.2091 50 79 50H34C31.7909 50 30 48.2091 30 46Z" fill="#DDDBFF" fill-opacity="0.8"/>
<path d="M30 64C30 60.6863 32.6863 58 36 58H120C123.314 58 126 60.6863 126 64V128C126 131.314 123.314 134 120 134H36C32.6863 134 30 131.314 30 128V64Z" fill="url(#paint1_linear_16842_23105)"/>
</g>
<path d="M22 14.25H134C138.28 14.25 141.75 17.7198 141.75 22V114C141.75 118.28 138.28 121.75 134 121.75H22C17.7198 121.75 14.25 118.28 14.25 114V22C14.25 17.7198 17.7198 14.25 22 14.25Z" stroke="#0E1014" stroke-opacity="0.1" stroke-width="0.5" shape-rendering="crispEdges"/>
</g>
<defs>
<filter id="filter0_dd_16842_23105" x="0" y="0" width="160" height="140" filterUnits="userSpaceOnUse" color-interpolation-filters="sRGB">
<feFlood flood-opacity="0" result="BackgroundImageFix"/>
<feColorMatrix in="SourceAlpha" type="matrix" values="0 0 0 0 0 0 0 0 0 0 0 0 0 0 0 0 0 0 127 0" result="hardAlpha"/>
<feOffset dx="2" dy="2"/>
<feGaussianBlur stdDeviation="8"/>
<feComposite in2="hardAlpha" operator="out"/>
<feColorMatrix type="matrix" values="0 0 0 0 0.0666667 0 0 0 0 0.0941176 0 0 0 0 0.152941 0 0 0 0.03 0"/>
<feBlend mode="normal" in2="BackgroundImageFix" result="effect1_dropShadow_16842_23105"/>
<feColorMatrix in="SourceAlpha" type="matrix" values="0 0 0 0 0 0 0 0 0 0 0 0 0 0 0 0 0 0 127 0" result="hardAlpha"/>
<feOffset/>
<feGaussianBlur stdDeviation="1.5"/>
<feComposite in2="hardAlpha" operator="out"/>
<feColorMatrix type="matrix" values="0 0 0 0 0.0666667 0 0 0 0 0.0941176 0 0 0 0 0.152941 0 0 0 0.04 0"/>
<feBlend mode="normal" in2="effect1_dropShadow_16842_23105" result="effect2_dropShadow_16842_23105"/>
<feBlend mode="normal" in="SourceGraphic" in2="effect2_dropShadow_16842_23105" result="shape"/>
</filter>
<clipPath id="bgblur_1_16842_23105_clip_path" transform="translate(0 0)"><path d="M14 22C14 17.5817 17.5817 14 22 14H134C138.418 14 142 17.5817 142 22V114C142 118.418 138.418 122 134 122H22C17.5817 122 14 118.418 14 114V22Z"/>
</clipPath><linearGradient id="paint0_linear_16842_23105" x1="67.5156" y1="5.5" x2="77.1193" y2="122.073" gradientUnits="userSpaceOnUse">
<stop offset="0.0969258" stop-color="white" stop-opacity="0.7"/>
<stop offset="0.553674" stop-color="white"/>
</linearGradient>
<linearGradient id="paint1_linear_16842_23105" x1="78" y1="58" x2="78" y2="134" gradientUnits="userSpaceOnUse">
<stop stop-color="#F4F3FF"/>
<stop offset="1" stop-color="white"/>
</linearGradient>
<clipPath id="clip0_16842_23105">
<path d="M14 22C14 17.5817 17.5817 14 22 14H134C138.418 14 142 17.5817 142 22V114C142 118.418 138.418 122 134 122H22C17.5817 122 14 118.418 14 114V22Z" fill="white"/>
</clipPath>
</defs>
</svg>
