<svg xmlns="http://www.w3.org/2000/svg" width="60" height="20" fill="none" viewBox="0 0 60 20"><g clip-path="url(#a)" data-figma-skip-parse="true"><foreignObject width="3350.24" height="3350.24" x="-1675.12" y="-1675.12" transform="matrix(-.00324 .00346 -.0105 -.00124 13.243 9.757)"><div xmlns="http://www.w3.org/1999/xhtml" style="background:conic-gradient(from 90deg,#89cbf6 0deg,#623be6 360deg);height:100%;width:100%;opacity:1"/></foreignObject></g><path d="M13.243 14.514a4.757 4.757 0 0 1-4.757-4.757C8.486 7.162 10.616 5 13.243 5a4.757 4.757 0 1 1 0 9.514" data-figma-gradient-fill="{&quot;type&quot;:&quot;GRADIENT_ANGULAR&quot;,&quot;stops&quot;:[{&quot;color&quot;:{&quot;r&quot;:0.53725492954254150,&quot;g&quot;:0.79607844352722168,&quot;b&quot;:0.96470588445663452,&quot;a&quot;:1.0},&quot;position&quot;:0.0},{&quot;color&quot;:{&quot;r&quot;:0.38431373238563538,&quot;g&quot;:0.23137255012989044,&quot;b&quot;:0.90196079015731812,&quot;a&quot;:1.0},&quot;position&quot;:1.0}],&quot;stopsVar&quot;:[{&quot;color&quot;:{&quot;r&quot;:0.53725492954254150,&quot;g&quot;:0.79607844352722168,&quot;b&quot;:0.96470588445663452,&quot;a&quot;:1.0},&quot;position&quot;:0.0},{&quot;color&quot;:{&quot;r&quot;:0.38431373238563538,&quot;g&quot;:0.23137255012989044,&quot;b&quot;:0.90196079015731812,&quot;a&quot;:1.0},&quot;position&quot;:1.0}],&quot;transform&quot;:{&quot;m00&quot;:-6.4864945411682129,&quot;m01&quot;:-20.998445510864258,&quot;m02&quot;:26.985704421997070,&quot;m10&quot;:6.9189305305480957,&quot;m11&quot;:-2.4801270961761475,&quot;m12&quot;:7.5373611450195312},&quot;opacity&quot;:1.0,&quot;blendMode&quot;:&quot;NORMAL&quot;,&quot;visible&quot;:true}"/><g clip-path="url(#b)" data-figma-skip-parse="true"><foreignObject width="4437.5" height="4437.5" x="-2218.75" y="-2218.75" transform="matrix(.0026 -.0026 .00726 .00104 6.757 9.757)"><div xmlns="http://www.w3.org/1999/xhtml" style="background:conic-gradient(from 90deg,#aa9ef0 0deg,#73faca 108.366deg,#aa9ef0 360deg);height:100%;width:100%;opacity:1"/></foreignObject></g><path d="M6.757 14.514a4.757 4.757 0 1 1 0-9.514c2.627 0 4.54 2.162 4.757 4.757a4.757 4.757 0 0 1-4.757 4.757" data-figma-gradient-fill="{&quot;type&quot;:&quot;GRADIENT_ANGULAR&quot;,&quot;stops&quot;:[{&quot;color&quot;:{&quot;r&quot;:0.45098039507865906,&quot;g&quot;:0.98039215803146362,&quot;b&quot;:0.79509806632995605,&quot;a&quot;:1.0},&quot;position&quot;:0.30101644992828369},{&quot;color&quot;:{&quot;r&quot;:0.66666668653488159,&quot;g&quot;:0.61960786581039429,&quot;b&quot;:0.94117647409439087,&quot;a&quot;:1.0},&quot;position&quot;:1.0}],&quot;stopsVar&quot;:[{&quot;color&quot;:{&quot;r&quot;:0.45098039507865906,&quot;g&quot;:0.98039215803146362,&quot;b&quot;:0.79509806632995605,&quot;a&quot;:1.0},&quot;position&quot;:0.0},{&quot;color&quot;:{&quot;r&quot;:0.45098039507865906,&quot;g&quot;:0.98039215803146362,&quot;b&quot;:0.79509806632995605,&quot;a&quot;:1.0},&quot;position&quot;:0.30101644992828369},{&quot;color&quot;:{&quot;r&quot;:0.66666668653488159,&quot;g&quot;:0.61960786581039429,&quot;b&quot;:0.94117647409439087,&quot;a&quot;:1.0},&quot;position&quot;:1.0}],&quot;transform&quot;:{&quot;m00&quot;:5.1891994476318359,&quot;m01&quot;:14.529755592346191,&quot;m02&quot;:-3.1025705337524414,&quot;m10&quot;:-5.1891970634460449,&quot;m11&quot;:2.0756819248199463,&quot;m12&quot;:11.313521385192871},&quot;opacity&quot;:1.0,&quot;blendMode&quot;:&quot;NORMAL&quot;,&quot;visible&quot;:true}"/><path fill="url(#c)" d="m9.976 6.313 3.28 3.458-2.862 3.05-3.642-3.069z"/><path fill="#2b248a" d="M28.648 4.697q1.343 0 2.387.42 1.044.407 1.653 1.167.622.76.671 1.763h-2.61a1.02 1.02 0 0 0-.323-.623q-.261-.272-.72-.408-.46-.148-1.106-.15-.87 0-1.38.259-.51.245-.51.732 0 .352.298.57.31.216 1.106.298l1.853.203q1.33.136 2.125.475.795.325 1.156.91.36.582.36 1.45 0 1.071-.584 1.871-.584.787-1.641 1.235-1.056.434-2.461.434-1.441 0-2.548-.434-1.093-.448-1.715-1.248A3.2 3.2 0 0 1 24 11.75h2.623q.062.42.36.732.3.311.796.489.51.162 1.193.162.945 0 1.492-.257.547-.272.547-.787a.7.7 0 0 0-.312-.61q-.31-.218-1.192-.312l-1.74-.177q-1.927-.19-2.797-.95-.87-.772-.87-2.074 0-1.059.56-1.79.57-.733 1.59-1.1 1.032-.378 2.398-.379m9.154 10.606h-2.683V4.697h2.683zm16.19-10.606c3.014 0 5.458 2.374 5.458 5.303s-2.444 5.302-5.459 5.303c-3.015 0-5.459-2.375-5.459-5.303s2.444-5.303 5.46-5.303m-11.54.35a5.67 5.67 0 0 1 3.293-.192c1.093.264 1.893.674 2.632 1.495l-1.581 1.64-.05.054a3.1 3.1 0 0 0-1.583-.937 3.2 3.2 0 0 0-1.852.109 3.07 3.07 0 0 0-1.454 1.114 2.9 2.9 0 0 0-.529 1.719c.01.611.215 1.205.587 1.7.371.496.892.869 1.49 1.07.524.174 1.085.21 1.625.104l.23-.055a3.1 3.1 0 0 0 1.491-.922l.06-.064 1.815 1.643-.136.153c-.69.744-1.556 1.143-2.571 1.422a5.68 5.68 0 0 1-3.253-.074l-.047-.014a5.5 5.5 0 0 1-2.65-1.9 5.2 5.2 0 0 1-1.043-3.025 5.17 5.17 0 0 1 .94-3.056 5.47 5.47 0 0 1 2.585-1.983m11.54 2.021c-1.771 0-3.088 1.377-3.089 2.932s1.317 2.932 3.088 2.932S57.08 11.555 57.08 10s-1.317-2.932-3.088-2.932"/><defs><clipPath id="a"><path d="M13.243 14.514a4.757 4.757 0 0 1-4.757-4.757C8.486 7.162 10.616 5 13.243 5a4.757 4.757 0 1 1 0 9.514"/></clipPath><clipPath id="b"><path d="M6.757 14.514a4.757 4.757 0 1 1 0-9.514c2.627 0 4.54 2.162 4.757 4.757a4.757 4.757 0 0 1-4.757 4.757"/></clipPath><linearGradient id="c" x1="12.378" x2="9.408" y1="8.676" y2="11.335" gradientUnits="userSpaceOnUse"><stop stop-color="#798fef"/><stop offset="1" stop-color="#7aedcf"/></linearGradient></defs></svg>