<svg width="48" height="48" viewBox="0 0 48 48" fill="none" xmlns="http://www.w3.org/2000/svg">
<g clip-path="url(#clip0_8874_85175)">
<rect width="48" height="48" rx="24" fill="#BDBFFF"/>
<rect width="48" height="48" rx="24" fill="url(#paint0_linear_8874_85175)"/>
<mask id="mask0_8874_85175" style="mask-type:alpha" maskUnits="userSpaceOnUse" x="0" y="0" width="48" height="48">
<circle cx="24" cy="24" r="24" fill="#424A52"/>
</mask>
<g mask="url(#mask0_8874_85175)">
<path d="M40 102V41.4286C40 39.0037 39.0367 36.6782 37.3221 34.9636C35.6075 33.249 33.282 32.2857 30.8571 32.2857H17.1429C14.718 32.2857 12.3925 33.249 10.6779 34.9636C8.96326 36.6782 8 39.0037 8 41.4286V102" fill="url(#paint1_linear_8874_85175)"/>
<path d="M24 28.2857C29.0495 28.2857 33.1429 24.1923 33.1429 19.1429C33.1429 14.0934 29.0495 10 24 10C18.9505 10 14.8571 14.0934 14.8571 19.1429C14.8571 24.1923 18.9505 28.2857 24 28.2857Z" fill="url(#paint2_linear_8874_85175)"/>
</g>
</g>
<defs>
<linearGradient id="paint0_linear_8874_85175" x1="24" y1="0" x2="24" y2="51.9" gradientUnits="userSpaceOnUse">
<stop offset="0.5" stop-color="white" stop-opacity="0"/>
<stop offset="1" stop-color="white" stop-opacity="0.5"/>
</linearGradient>
<linearGradient id="paint1_linear_8874_85175" x1="24" y1="10" x2="24" y2="46" gradientUnits="userSpaceOnUse">
<stop stop-color="white"/>
<stop offset="1" stop-color="white" stop-opacity="0.32"/>
</linearGradient>
<linearGradient id="paint2_linear_8874_85175" x1="24" y1="10" x2="24" y2="46" gradientUnits="userSpaceOnUse">
<stop stop-color="white"/>
<stop offset="1" stop-color="white" stop-opacity="0.32"/>
</linearGradient>
<clipPath id="clip0_8874_85175">
<rect width="48" height="48" rx="24" fill="white"/>
</clipPath>
</defs>
</svg>
