<svg width="40" height="40" viewBox="0 0 40 40" fill="none" xmlns="http://www.w3.org/2000/svg">
<path d="M0 8.875C0 3.97347 3.97347 0 8.875 0H31.125C36.0265 0 40 3.97347 40 8.875V31.125C40 36.0265 36.0265 40 31.125 40H8.875C3.97347 40 0 36.0265 0 31.125V8.875Z" fill="#BDBFFF"/>
<path d="M0 8.875C0 3.97347 3.97347 0 8.875 0H31.125C36.0265 0 40 3.97347 40 8.875V31.125C40 36.0265 36.0265 40 31.125 40H8.875C3.97347 40 0 36.0265 0 31.125V8.875Z" fill="url(#paint0_linear_14597_72303)"/>
<path d="M20 26.6667V20M20 20L14.1933 16.6667M20 20L25.8067 16.6667M17 14.8467L23 18.28M19.3333 26.4867C19.536 26.6037 19.766 26.6653 20 26.6653C20.234 26.6653 20.464 26.6037 20.6667 26.4867L25.3333 23.82C25.5358 23.7031 25.704 23.535 25.821 23.3326C25.938 23.1301 25.9998 22.9005 26 22.6667V17.3333C25.9998 17.0995 25.938 16.8699 25.821 16.6675C25.704 16.465 25.5358 16.2969 25.3333 16.18L20.6667 13.5133C20.464 13.3963 20.234 13.3347 20 13.3347C19.766 13.3347 19.536 13.3963 19.3333 13.5133L14.6667 16.18C14.4642 16.2969 14.296 16.465 14.179 16.6675C14.062 16.8699 14.0002 17.0995 14 17.3333V22.6667C14.0002 22.9005 14.062 23.1301 14.179 23.3326C14.296 23.535 14.4642 23.7031 14.6667 23.82L19.3333 26.4867Z" stroke="white" stroke-linecap="round" stroke-linejoin="round"/>
<defs>
<linearGradient id="paint0_linear_14597_72303" x1="20" y1="0" x2="20" y2="43.25" gradientUnits="userSpaceOnUse">
<stop offset="0.5" stop-color="white" stop-opacity="0"/>
<stop offset="1" stop-color="white" stop-opacity="0.5"/>
</linearGradient>
</defs>
</svg>
